<svg width="1000" height="1000" viewBox="0 0 1000 1000" xmlns="http://www.w3.org/2000/svg"><defs/><path fill="#ffffff" transform="matrix(0.40766541003022855 0 0 0.40766541003022855 56.93561532430705 -34.351325544164915)" d="M 452.46549366088 1485.16863283361 L 321.86549366088 1485.16863283361 C 312.86549366088 1485.16863283361 305.56549366088 1477.86863283361 305.56549366088 1468.86863283361 L 305.56549366088 1468.86863283361 C 305.56549366088 1459.86863283361 312.86549366088 1452.56863283361 321.86549366088 1452.56863283361 L 452.46549366088 1452.56863283361 C 461.46549366088 1452.56863283361 468.76549366088 1459.86863283361 468.76549366088 1468.86863283361 L 468.76549366088 1468.86863283361 C 468.76549366088 1477.76863283361 461.46549366088 1485.16863283361 452.46549366088 1485.16863283361 Z"/><path fill="#ffffff" transform="matrix(0.40766541003022855 0 0 0.40766541003022855 56.93561532430705 -34.351325544164915)" d="M 429.26549366088 1498.86863283361 C 427.26549366088 1497.96863283361 425.06549366088 1497.46863283361 422.66549366088 1497.46863283361 L 351.46549366088 1497.46863283361 C 349.16549366088 1497.46863283361 346.96549366088 1497.96863283361 344.96549366088 1498.86863283361 C 339.16549366088 1501.36863283361 335.16549366088 1507.16863283361 335.16549366088 1513.86863283361 C 335.16549366088 1521.46863283361 340.46549366088 1527.86863283361 347.56549366088 1529.66863283361 C 354.56549366088 1544.46863283361 369.66549366088 1554.76863283361 387.16549366088 1554.76863283361 C 404.66549366088 1554.76863283361 419.76549366088 1544.46863283361 426.76549366088 1529.66863283361 C 433.86549366088 1527.86863283361 439.06549366088 1521.46863283361 439.06549366088 1513.86863283361 C 439.06549366088 1507.16863283361 435.06549366088 1501.46863283361 429.26549366088 1498.86863283361 Z"/><path fill="#ffffff" transform="matrix(0.40766541003022855 0 0 0.40766541003022855 56.93561532430705 -34.351325544164915)" d="M 394.96549366088 1276.46863283361 C 394.96549366088 1283.31696373151 389.41382455878 1288.86863283361 382.56549366088 1288.86863283361 C 375.71716276298 1288.86863283361 370.16549366088 1283.31696373151 370.16549366088 1276.46863283361 C 370.16549366088 1269.62030193571 375.71716276298 1264.06863283361 382.56549366088 1264.06863283361 C 389.41382455878 1264.06863283361 394.96549366088 1269.62030193571 394.96549366088 1276.46863283361 Z"/><path fill="#ffffff" transform="matrix(0.40766541003022855 0 0 0.40766541003022855 56.93561532430705 -34.351325544164915)" d="M 376.56549366088 1066.86863283361 C 296.16549366088 1069.86863283361 230.86549366088 1135.66863283361 228.36549366088 1216.16863283361 C 227.26549366088 1250.86863283361 237.66549366088 1283.16863283361 256.06549366088 1309.46863283361 C 276.66549366088 1338.86863283361 290.16549366088 1372.46863283361 294.86549366088 1407.66863283361 C 296.66549366088 1421.36863283361 307.16549366088 1432.06863283361 320.46549366088 1433.96863283361 L 320.46549366088 1433.96863283361 C 336.86549366088 1433.96863283361 350.26549366088 1420.66863283361 350.26549366088 1404.16863283361 L 350.26549366088 1360.36863283361 L 415.06549366088 1360.36863283361 L 415.06549366088 1404.16863283361 C 415.06549366088 1420.66863283361 428.46549366088 1433.96863283361 444.86549366088 1433.96863283361 C 457.96549366088 1431.86863283361 468.66549366088 1421.46863283361 470.36549366088 1407.96863283361 C 474.76549366088 1373.06863283361 487.66549366088 1339.66863283361 508.26549366088 1310.86863283361 C 526.36549366088 1285.56863283361 536.96549366088 1254.56863283361 536.96549366088 1221.16863283361 C 536.96549366088 1133.86863283361 464.56549366088 1063.46863283361 376.56549366088 1066.86863283361 Z M 320.16549366088 1179.16863283361 L 328.46549366088 1180.36863283361 L 322.46549366088 1186.16863283361 L 323.86549366088 1194.36863283361 L 316.46549366088 1190.46863283361 L 309.06549366088 1194.36863283361 L 310.46549366088 1186.16863283361 L 304.46549366088 1180.36863283361 L 312.76549366088 1179.16863283361 L 316.46549366088 1171.66863283361 L 320.16549366088 1179.16863283361 Z M 292.46549366088 1236.76863283361 L 293.26549366088 1241.66863283361 L 288.86549366088 1239.36863283361 L 284.46549366088 1241.66863283361 L 285.26549366088 1236.76863283361 L 281.66549366088 1233.26863283361 L 286.66549366088 1232.56863283361 L 288.86549366088 1228.06863283361 L 291.06549366088 1232.56863283361 L 296.06549366088 1233.26863283361 L 292.46549366088 1236.76863283361 Z M 306.16549366088 1128.16863283361 L 308.36549366088 1123.66863283361 L 310.56549366088 1128.16863283361 L 315.56549366088 1128.86863283361 L 311.96549366088 1132.36863283361 L 312.76549366088 1137.26863283361 L 308.36549366088 1134.96863283361 L 303.96549366088 1137.26863283361 L 304.76549366088 1132.36863283361 L 301.16549366088 1128.86863283361 L 306.16549366088 1128.16863283361 Z M 337.66549366088 1348.36863283361 L 325.36549366088 1345.36863283361 L 303.06549366088 1378.16863283361 L 303.06549366088 1329.36863283361 L 337.66549366088 1304.76863283361 L 337.66549366088 1348.36863283361 Z M 372.96549366088 1121.36863283361 L 381.26549366088 1104.56863283361 L 389.56549366088 1121.36863283361 L 408.06549366088 1124.06863283361 L 394.66549366088 1137.16863283361 L 397.86549366088 1155.56863283361 L 381.16549366088 1146.86863283361 L 364.56549366088 1155.56863283361 L 367.76549366088 1137.16863283361 L 354.36549366088 1124.06863283361 L 372.96549366088 1121.36863283361 Z M 382.56549366088 1178.66863283361 L 382.56549366088 1178.66863283361 C 396.56549366088 1192.06863283361 406.46549366088 1208.96863283361 411.46549366088 1227.36863283361 L 353.76549366088 1227.36863283361 C 358.66549366088 1208.96863283361 368.56549366088 1192.06863283361 382.56549366088 1178.66863283361 Z M 414.96549366088 1348.46863283361 L 350.16549366088 1348.46863283361 L 350.16549366088 1254.26863283361 C 350.16549366088 1249.16863283361 350.56549366088 1244.16863283361 351.26549366088 1239.16863283361 L 413.86549366088 1239.16863283361 C 414.56549366088 1244.16863283361 414.96549366088 1249.16863283361 414.96549366088 1254.26863283361 L 414.96549366088 1348.46863283361 Z M 444.46549366088 1121.36863283361 L 446.66549366088 1116.86863283361 L 448.86549366088 1121.36863283361 L 453.86549366088 1122.06863283361 L 450.26549366088 1125.56863283361 L 451.06549366088 1130.46863283361 L 446.66549366088 1128.16863283361 L 442.26549366088 1130.46863283361 L 443.06549366088 1125.56863283361 L 439.46549366088 1122.06863283361 L 444.46549366088 1121.36863283361 Z M 461.66549366088 1378.16863283361 L 439.36549366088 1345.36863283361 L 427.06549366088 1348.36863283361 L 427.06549366088 1304.76863283361 L 461.66549366088 1329.36863283361 L 461.66549366088 1378.16863283361 Z M 473.16549366088 1241.66863283361 L 468.76549366088 1239.36863283361 L 464.36549366088 1241.66863283361 L 465.16549366088 1236.76863283361 L 461.56549366088 1233.26863283361 L 466.56549366088 1232.56863283361 L 468.76549366088 1228.06863283361 L 470.96549366088 1232.56863283361 L 475.96549366088 1233.26863283361 L 472.36549366088 1236.76863283361 L 473.16549366088 1241.66863283361 Z M 469.16549366088 1195.66863283361 L 470.96549366088 1205.96863283361 L 461.66549366088 1201.06863283361 L 452.36549366088 1205.96863283361 L 454.16549366088 1195.66863283361 L 446.66549366088 1188.36863283361 L 457.06549366088 1186.86863283361 L 461.66549366088 1177.46863283361 L 466.26549366088 1186.86863283361 L 476.66549366088 1188.36863283361 L 469.16549366088 1195.66863283361 Z"/><path id="text" fill="#ffffff" transform="matrix(1.1659963857827123 0 0 1.1659963857827123 216.4929652461871 43.129289371376885)" d="M 106.67755546636 413.85983214602 C 100.89630546636 416.04733214602 94.33380546636 417.14108214602 86.99005546636 417.14108214602 C 62.92755546636 417.14108214602 50.89630546636 405.50045714602 50.89630546636 382.21920714602 C 50.89630546636 360.18795714602 62.92755546636 349.17233214602 86.99005546636 349.17233214602 C 94.33380546636 349.17233214602 100.89630546636 350.26608214602 106.67755546636 352.45358214602 L 106.67755546636 363.70358214602 C 100.89630546636 361.20358214602 94.64630546636 359.95358214602 87.92755546636 359.95358214602 C 71.83380546636 359.95358214602 63.78693046636 367.37545714602 63.78693046636 382.21920714602 C 63.78693046636 398.31295714602 71.83380546636 406.35983214602 87.92755546636 406.35983214602 C 94.64630546636 406.35983214602 100.89630546636 405.10983214602 106.67755546636 402.60983214602 L 106.67755546636 413.85983214602 Z M 118.39630546636 416.67233214602 L 118.39630546636 349.64108214602 L 148.39630546636 349.64108214602 C 162.08380546636 349.64108214602 168.92755546636 355.93795714602 168.92755546636 368.53170714602 C 168.92755546636 382.18795714602 159.56818046636 390.45358214602 140.84943046636 393.32858214602 L 139.06818046636 382.26608214602 C 150.31818046636 380.23483214602 155.94318046636 375.78170714602 155.94318046636 368.90670714602 C 155.94318046636 363.34420714602 153.16193046636 360.56295714602 147.59943046636 360.56295714602 L 130.81818046636 360.56295714602 L 130.81818046636 416.67233214602 L 118.39630546636 416.67233214602 Z M 224.47443046636 405.89108214602 C 238.38068046636 405.89108214602 245.33380546636 397.70358214602 245.33380546636 381.32858214602 C 245.33380546636 367.39108214602 238.38068046636 360.42233214602 224.47443046636 360.42233214602 L 210.64630546636 360.42233214602 L 210.64630546636 405.89108214602 L 224.47443046636 405.89108214602 Z M 198.22443046636 416.67233214602 L 198.22443046636 349.64108214602 L 224.47443046636 349.64108214602 C 246.66193046636 349.64108214602 257.75568046636 360.20358214602 257.75568046636 381.32858214602 C 257.75568046636 404.89108214602 246.66193046636 416.67233214602 224.47443046636 416.67233214602 L 198.22443046636 416.67233214602 Z M 287.89630546636 367.45358214602 C 302.83380546636 367.45358214602 310.30255546636 375.07858214602 310.30255546636 390.32858214602 C 310.30255546636 392.35983214602 310.16193046636 394.39108214602 309.88068046636 396.42233214602 L 277.20880546636 396.42233214602 C 277.20880546636 403.35983214602 282.30255546636 406.82858214602 292.49005546636 406.82858214602 C 297.45880546636 406.82858214602 302.42755546636 406.35983214602 307.39630546636 405.42233214602 L 307.39630546636 415.26608214602 C 303.05255546636 416.20358214602 297.77130546636 416.67233214602 291.55255546636 416.67233214602 C 273.70880546636 416.67233214602 264.78693046636 408.28170714602 264.78693046636 391.50045714602 C 264.78693046636 375.46920714602 272.49005546636 367.45358214602 287.89630546636 367.45358214602 Z M 277.20880546636 387.79733214602 L 298.20880546636 387.79733214602 L 298.20880546636 387.42233214602 C 298.20880546636 380.60983214602 294.77130546636 377.20358214602 287.89630546636 377.20358214602 C 281.33380546636 377.20358214602 277.77130546636 380.73483214602 277.20880546636 387.79733214602 Z M 319.63068046636 414.32858214602 L 319.63068046636 404.01608214602 C 325.09943046636 406.20358214602 331.41193046636 407.29733214602 338.56818046636 407.29733214602 C 343.91193046636 407.29733214602 346.58380546636 405.57858214602 346.58380546636 402.14108214602 C 346.58380546636 398.85983214602 344.78693046636 397.21920714602 341.19318046636 397.21920714602 L 332.28693046636 397.21920714602 C 322.28693046636 397.21920714602 317.28693046636 392.29733214602 317.28693046636 382.45358214602 C 317.28693046636 372.14108214602 324.58380546636 366.98483214602 339.17755546636 366.98483214602 C 345.36505546636 366.98483214602 351.19318046636 367.92233214602 356.66193046636 369.79733214602 L 356.66193046636 380.10983214602 C 351.19318046636 377.92233214602 345.25568046636 376.82858214602 338.84943046636 376.82858214602 C 332.13068046636 376.82858214602 328.77130546636 378.54733214602 328.77130546636 381.98483214602 C 328.77130546636 385.26608214602 330.72443046636 386.90670714602 334.63068046636 386.90670714602 L 342.59943046636 386.90670714602 C 353.53693046636 386.90670714602 359.00568046636 391.82858214602 359.00568046636 401.67233214602 C 359.00568046636 411.98483214602 352.03693046636 417.14108214602 338.09943046636 417.14108214602 C 331.25568046636 417.14108214602 325.09943046636 416.20358214602 319.63068046636 414.32858214602 Z M 380.09943046636 349.64108214602 L 380.09943046636 359.48483214602 L 367.67755546636 359.48483214602 L 367.67755546636 349.64108214602 L 380.09943046636 349.64108214602 Z M 380.09943046636 367.45358214602 L 380.09943046636 416.67233214602 L 367.67755546636 416.67233214602 L 367.67755546636 367.45358214602 L 380.09943046636 367.45358214602 Z M 423.31818046636 378.60983214602 C 421.28693046636 377.85983214602 418.39630546636 377.48483214602 414.64630546636 377.48483214602 C 406.05255546636 377.48483214602 401.75568046636 382.21920714602 401.75568046636 391.68795714602 C 401.75568046636 400.84420714602 405.45880546636 405.42233214602 412.86505546636 405.42233214602 C 416.42755546636 405.42233214602 419.91193046636 404.57858214602 423.31818046636 402.89108214602 L 423.31818046636 378.60983214602 Z M 435.74005546636 412.92233214602 C 435.74005546636 427.29733214602 427.09943046636 434.48483214602 409.81818046636 434.48483214602 C 403.75568046636 434.48483214602 398.38068046636 433.70358214602 393.69318046636 432.14108214602 L 393.69318046636 422.29733214602 C 398.47443046636 423.85983214602 403.88068046636 424.64108214602 409.91193046636 424.64108214602 C 418.84943046636 424.64108214602 423.31818046636 420.89108214602 423.31818046636 413.39108214602 C 419.63068046636 414.95358214602 415.66193046636 415.73483214602 411.41193046636 415.73483214602 C 396.78693046636 415.73483214602 389.47443046636 407.75045714602 389.47443046636 391.78170714602 C 389.47443046636 375.56295714602 397.99005546636 367.45358214602 415.02130546636 367.45358214602 C 420.74005546636 367.45358214602 427.64630546636 368.12545714602 435.74005546636 369.46920714602 L 435.74005546636 412.92233214602 Z M 447.45880546636 416.67233214602 L 447.45880546636 367.45358214602 L 457.06818046636 367.45358214602 L 458.61505546636 374.67233214602 C 463.33380546636 369.85983214602 468.70880546636 367.45358214602 474.74005546636 367.45358214602 C 486.39630546636 367.45358214602 492.22443046636 373.51608214602 492.22443046636 385.64108214602 L 492.22443046636 416.67233214602 L 479.80255546636 416.67233214602 L 479.80255546636 385.64108214602 C 479.80255546636 380.20358214602 477.09943046636 377.48483214602 471.69318046636 377.48483214602 C 467.66193046636 377.48483214602 463.72443046636 379.09420714602 459.88068046636 382.31295714602 L 459.88068046636 416.67233214602 L 447.45880546636 416.67233214602 Z M 503.94318046636 414.32858214602 L 503.94318046636 404.01608214602 C 509.41193046636 406.20358214602 515.72443046636 407.29733214602 522.88068046636 407.29733214602 C 528.22443046636 407.29733214602 530.89630546636 405.57858214602 530.89630546636 402.14108214602 C 530.89630546636 398.85983214602 529.09943046636 397.21920714602 525.50568046636 397.21920714602 L 516.59943046636 397.21920714602 C 506.59943046636 397.21920714602 501.59943046636 392.29733214602 501.59943046636 382.45358214602 C 501.59943046636 372.14108214602 508.89630546636 366.98483214602 523.49005546636 366.98483214602 C 529.67755546636 366.98483214602 535.50568046636 367.92233214602 540.97443046636 369.79733214602 L 540.97443046636 380.10983214602 C 535.50568046636 377.92233214602 529.56818046636 376.82858214602 523.16193046636 376.82858214602 C 516.44318046636 376.82858214602 513.08380546636 378.54733214602 513.08380546636 381.98483214602 C 513.08380546636 385.26608214602 515.03693046636 386.90670714602 518.94318046636 386.90670714602 L 526.91193046636 386.90670714602 C 537.84943046636 386.90670714602 543.31818046636 391.82858214602 543.31818046636 401.67233214602 C 543.31818046636 411.98483214602 536.34943046636 417.14108214602 522.41193046636 417.14108214602 C 515.56818046636 417.14108214602 509.41193046636 416.20358214602 503.94318046636 414.32858214602 Z"/></svg>